<svg width="33" height="33" viewBox="0 0 33 33" fill="none" xmlns="http://www.w3.org/2000/svg">
<path fill-rule="evenodd" clip-rule="evenodd" d="M15.3177 2.10313C16.0352 1.5151 17.068 1.5151 17.7855 2.10313L32.2396 13.9498C33.7868 15.2182 32.6434 17.7154 30.6722 17.3727L26.64 16.6715L31.1341 28.6207C31.6126 29.8934 30.6715 31.2525 29.3118 31.2525H20.4446V21.6832C20.4446 20.6082 19.5733 19.737 18.4984 19.7369H14.6058C13.5308 19.7369 12.6595 20.6082 12.6595 21.6832V31.2525H3.79133C2.43161 31.2525 1.49143 29.8934 1.97004 28.6207L6.4632 16.6705L2.43098 17.3727C0.460082 17.715 -0.683114 15.2182 0.863595 13.9498L15.3177 2.10313Z" fill="currentColor"/>
</svg>
